<?xml version="1.0" encoding="UTF-8"?>
<svg id="_参数视图" data-name="参数视图" xmlns="http://www.w3.org/2000/svg" width="24" height="24" viewBox="0 0 24 24">
    <defs>
        <style>
            .cls-1 {
            fill: #f0f0f0;
            }
        </style>
    </defs>
    <path class="cls-1"
          d="M20,5.74c.28,0,.5,.22,.5,.5v11.51c0,.28-.22,.5-.5,.5H4.07c-.28,0-.5-.22-.5-.5V6.24c0-.28,.22-.5,.5-.5h15.93m0-1.5H4.07c-1.1,0-2,.9-2,2v11.51c0,1.1,.9,2,2,2h15.93c1.1,0,2-.9,2-2V6.24c0-1.1-.9-2-2-2h0Z"/>
    <path class="cls-1"
          d="M2.88,16.4s1.12-2.71,1.94-2.89c.63-.13,1.23,.38,1.87,.25,1.24-.26,1.13-3.46,2.38-3.68,1.1-.19,1.32,2.18,2.38,2.55,.9,.32,1.98-.48,2.93-.53,1.08-.05,1.67,2.33,2.71,2.66,.62,.19,1.88-.22,2.52-.12s1.54,1.53,1.54,1.53l-.44,2.38H3.32l-.44-2.16Z"/>
</svg>