<?xml version="1.0" encoding="UTF-8"?>
<svg id="_音素视图" data-name="音素视图" xmlns="http://www.w3.org/2000/svg" width="24" height="24" viewBox="0 0 24 24">
    <defs>
        <style>
            .cls-1 {
            fill: none;
            stroke: #000;
            stroke-linecap: round;
            stroke-miterlimit: 10;
            stroke-width: 1.5px;
            }
        </style>
    </defs>
    <g>
        <line class="cls-1" x1="2.8" y1="2.73" x2="2.8" y2="21.27"/>
        <line class="cls-1" x1="21.2" y1="2.73" x2="21.2" y2="21.27"/>
    </g>
    <path d="M8.17,14.36c0-2.13,1.86-3.19,6.02-3.66,0-1.26-.41-2.47-2.02-2.47-1.14,0-2.16,.52-2.94,1.05l-.65-1.14c.9-.58,2.29-1.28,3.86-1.28,2.38,0,3.39,1.6,3.39,4.02v6.02h-1.35l-.14-1.17h-.05c-.94,.77-2.04,1.41-3.24,1.41-1.64,0-2.87-1.01-2.87-2.78Zm6.02,.16v-2.74c-3.3,.4-4.42,1.21-4.42,2.47,0,1.12,.76,1.57,1.73,1.57s1.73-.45,2.69-1.3Z"/>
</svg>