<?xml version="1.0" encoding="UTF-8"?>
<svg id="_图层_4" data-name="图层 4" xmlns="http://www.w3.org/2000/svg" width="24" height="24" viewBox="0 0 24 24">
  <defs>
    <style>
      .cls-1 {
        fill: #f0f0f0;
      }

      .cls-2 {
        fill: none;
        stroke: #f0f0f0;
        stroke-linecap: round;
        stroke-miterlimit: 10;
      }
    </style>
  </defs>
  <path id="_笔" data-name="笔" class="cls-1" d="M18.12,2.74c.82-.92,2.23-.99,3.14-.17,.92,.82,.99,2.23,.17,3.14-.06,.06-.11,.12-.18,.18l-.55,.56-3.15-3.16,.56-.56h0Zm-1.23,1.23l-6.22,6.22c-.25,.25-.44,.57-.51,.92l-.68,2.86c-.06,.25,.1,.5,.35,.56,.07,.02,.14,.02,.21,0l2.86-.68c.35-.08,.67-.25,.93-.5l6.22-6.22-3.15-3.15h0Z"/>
  <path class="cls-2" d="M21.29,16.51s-2.16-1.32-2.93-1.22c-.82,.11-1.95,1.87-2.77,1.84-.94-.05-2.34-1.95-3.27-1.86-.98,.1-2.61,1.81-3.59,1.64s-2.3-2.89-3.27-2.62c-1.96,.56-2.88,7.1-2.88,7.1"/>
</svg>