<?xml version="1.0" encoding="UTF-8"?>
<svg id="_绘制音高" data-name="绘制音高" xmlns="http://www.w3.org/2000/svg" width="24" height="24" viewBox="0 0 24 24">
    <defs>
        <style>
            .cls-1 {
            fill: #f0f0f0;
            }

            .cls-2 {
            fill: none;
            stroke: #f0f0f0;
            stroke-linecap: round;
            stroke-miterlimit: 10;
            stroke-width: 2px;
            }
        </style>
    </defs>
    <path id="_笔" data-name="笔" class="cls-1"
          d="M18.12,2.74c.82-.92,2.23-.99,3.14-.17,.92,.82,.99,2.23,.17,3.14-.06,.06-.11,.12-.18,.18l-.55,.56-3.15-3.16,.56-.56h0Zm-1.23,1.23l-6.22,6.22c-.25,.25-.44,.57-.51,.92l-.68,2.86c-.06,.25,.1,.5,.35,.56,.07,.02,.14,.02,.21,0l2.86-.68c.35-.08,.67-.25,.93-.5l6.22-6.22-3.15-3.15h0Z"/>
    <path class="cls-2"
          d="M3.02,20.98s.31-5.85,2.27-6.1c1.63-.21,2.26,2.19,3.91,2.14s6.85-.11,8.51-.02c1.32,.07,3.2,1.51,3.2,1.51"/>
</svg>