<?xml version="1.0" encoding="UTF-8"?>
<svg id="_图层_1" data-name="图层 1" xmlns="http://www.w3.org/2000/svg" width="48" height="17.91" viewBox="0 0 48 17.91">
  <defs>
    <style>
      .cls-1 {
        fill: #f0f0f0;
      }
    </style>
  </defs>
  <path class="cls-1" d="M24,10.17l-7.46,7.39c-.18,.17-.39,.26-.63,.26s-.47-.09-.65-.26-.26-.38-.26-.64,.09-.45,.26-.63l7.46-7.38L15.26,1.52c-.18-.17-.26-.39-.26-.64,0-.12,.02-.24,.07-.35s.11-.2,.19-.28,.18-.14,.29-.19,.23-.07,.35-.07c.25,0,.46,.09,.63,.26l7.46,7.38L31.46,.26c.18-.17,.39-.26,.64-.26,.12,0,.24,.02,.35,.07,.11,.05,.2,.11,.29,.19s.15,.18,.19,.28,.07,.22,.07,.34c0,.25-.09,.46-.26,.64l-7.46,7.38,7.46,7.38c.18,.17,.26,.38,.26,.63,0,.12-.02,.24-.07,.35s-.11,.21-.19,.29c-.08,.08-.17,.14-.29,.19-.11,.05-.23,.07-.35,.07-.25,0-.47-.09-.64-.26l-7.46-7.39Z"/>
</svg>